# xmcd CD database file
# Copyright (C) 1993-1998 Ti Kan
#
# Track frame offsets:
# 150
# 58125
# 82800
# 104700
# 130425
# 186300
# 190950
# 193950
# 198150
# 200100
# 205500
# 216600
# 233550
# 253875
# 306225
# 314475
# 328800
#
# Disc length: 4433 seconds
# Revision: 0
# Processed by: cddbd v1.4b41PL1 Copyright (c) Steve Scherf et al.
# Submitted via: CDSpectrumPro v3.2.327
#
DISCID=15114f11
DTITLE=Carleton Sheets - No Down Payment CD7
DYEAR=1900
DGENRE=
TTITLE0=Technique #17: Using Discounted Bonds
TTITLE1=Technique #18: Land Contracts
TTITLE2=Technique #19: Defer A Portion Of The Sale Price
TTITLE3=Technique #20: A Pledged Asset Mortgage
TTITLE4=Putting Government Programs To Work For You and Chapter Summary
TTITLE5=Testimonials
TTITLE6=Converting Paper To Cash and Taking Cash Out At Closing
TTITLE7=Technique #1: Sell The Paper At A Discount
TTITLE8=Technique #2: Collateralize The Paper
TTITLE9=Technique #3: Using The Paper As Down Payment
TTITLE10=Technique #4: Creating Multiple Notes
TTITLE11=Technique #5: Sell Income From The Note
TTITLE12=Take Cash Out With Seller Rebates
TTITLE13=A Unique Approach To A Bank-Owned Foreclosure Opportunity
TTITLE14=Applying Creative Finance Techniques
TTITLE15=The C.O.G. Chart and Chapter Summary
TTITLE16=Testimonials
EXTD=
EXTT0=
EXTT1=
EXTT2=
EXTT3=
EXTT4=
EXTT5=
EXTT6=
EXTT7=
EXTT8=
EXTT9=
EXTT10=
EXTT11=
EXTT12=
EXTT13=
EXTT14=
EXTT15=
EXTT16=
PLAYORDER=
